<svg width="32" height="32" viewBox="0 0 32 32" fill="none" xmlns="http://www.w3.org/2000/svg">
<rect width="32" height="32" rx="16" fill="#F5D1BD"/>
<path d="M20.9082 19.7576C20.1794 20.9663 19.2582 20.5821 18.3932 20.0698C17.5281 19.5575 16.7111 18.9412 16.1905 19.6696C15.6218 20.2939 16.0623 21.2945 16.2866 22.175C16.5109 23.0635 16.5269 23.8319 15.1092 24C13.9878 23.8479 14.0519 22.9194 14.2361 21.9348C14.4203 20.9503 14.7087 19.9097 13.9878 19.5415C13.4111 19.1573 13.0106 19.8216 12.506 20.478C11.9854 21.1264 11.3927 21.7587 10.4155 21.2945C9.5344 20.5661 9.87081 20.1418 10.3354 19.5975C10.7999 19.0532 11.4007 18.3248 11.0563 17.0441C10.9121 16.5238 10.1912 16.6439 9.47833 16.6278C8.78148 16.6118 8.07663 16.4678 8.00454 15.4272C7.94847 14.7948 8.42105 14.5387 8.90964 14.3386C9.40624 14.1384 9.91086 13.9944 9.91887 13.4901C9.9429 13.0018 9.6145 12.6576 9.40624 12.2974C9.19799 11.9372 9.10988 11.561 9.60649 11.0007C10.4475 10.3123 11.1203 10.8966 11.7931 11.529C12.466 12.1613 13.1308 12.8257 13.9558 12.3054C14.6126 11.8732 14.0118 11.1127 13.5473 10.3683C13.0827 9.6239 12.7543 8.9115 13.9558 8.58332C14.997 8.29516 15.3975 9.00756 15.758 9.83202C16.1264 10.6565 16.4468 11.593 17.3279 11.7611C18.5854 11.9932 19.4985 10.5204 20.3716 9.35175C21.2446 8.18309 22.1017 7.3106 23.199 8.75141C24.4005 10.2643 23.2551 10.9687 21.9175 11.593C20.5798 12.1773 19.042 12.6896 19.4104 13.8183C19.6267 14.4746 20.3315 14.1144 21.0764 13.8663C21.8133 13.6182 22.6063 13.4821 22.9908 14.6107C23.3993 15.8034 22.4301 16.0755 21.3408 16.1876C20.2514 16.2997 19.034 16.2516 18.9539 16.7959C18.8658 17.3643 19.5946 17.5964 20.2274 17.9326C20.8602 18.2768 21.3968 18.733 20.9082 19.7576ZM22.7985 21.5986C22.0376 21.5986 21.6451 21.0063 21.6451 20.398C21.6451 19.7896 22.0296 19.1973 22.7985 19.1973C23.5995 19.1973 24 19.7896 24 20.398C24 21.0063 23.5995 21.5986 22.7985 21.5986Z" fill="#B97149"/>
</svg>
