<svg width="32" height="32" viewBox="0 0 32 32" fill="none" xmlns="http://www.w3.org/2000/svg">
<rect width="32" height="32" rx="16" fill="#FDE9A0"/>
<path fill-rule="evenodd" clip-rule="evenodd" d="M8.00134 23.1099C7.97375 23.6008 8.37521 24 8.86657 24H15.0976C15.5894 24 15.9829 23.5999 16.0372 23.1112C16.2389 21.3046 17.049 19.6203 18.3344 18.3349C19.6198 17.0494 21.3041 16.2394 23.1107 16.0376C23.5994 15.9838 23.9991 15.5899 23.9991 15.0985V8.86701C23.9991 8.37521 23.6003 7.97375 23.1094 8.00134C19.1737 8.22027 15.4568 9.88229 12.6695 12.6695C9.88229 15.4568 8.22027 19.1742 8.00134 23.1099ZM21.7795 12.2665C22.1053 12.1944 22.4339 12.1359 22.7645 12.0911L22.6447 11.209C22.2896 11.257 21.9367 11.3198 21.5868 11.3973L21.7795 12.2665ZM18.0858 13.7606C18.6547 13.4111 19.2517 13.1097 19.8706 12.8593L19.5368 12.0342C18.872 12.303 18.2308 12.6268 17.6199 13.0022L18.0858 13.7606ZM15.7501 15.6339C15.9823 15.3945 16.2243 15.1648 16.4756 14.9454L15.8903 14.2747C15.3502 14.7461 14.8503 15.2616 14.3957 15.816L15.0843 16.3803C15.2958 16.1224 15.5179 15.8734 15.7501 15.6339ZM13.1037 19.8377C13.3348 19.2114 13.6176 18.6055 13.9493 18.0262L13.1771 17.5838C12.8208 18.2061 12.5169 18.8569 12.2687 19.5297L13.1037 19.8377ZM12.4249 22.7542C12.4597 22.4213 12.5082 22.0911 12.5696 21.7644L11.695 21.5988C11.6285 21.9508 11.5765 22.3054 11.5392 22.6617L12.4249 22.7542Z" fill="#FBC712"/>
</svg>
