<svg width="32" height="32" viewBox="0 0 32 32" fill="none" xmlns="http://www.w3.org/2000/svg">
<rect width="32" height="32" rx="16" fill="#FFF1EC"/>
<path d="M22.1429 10.2857H18.7143V9.42857C18.7143 9.04969 18.5638 8.68633 18.2959 8.41842C18.028 8.15051 17.6646 8 17.2857 8H14.4286C14.0497 8 13.6863 8.15051 13.4184 8.41842C13.1505 8.68633 13 9.04969 13 9.42857V10.2857H9.57143C9.41988 10.2857 9.27453 10.3459 9.16737 10.4531C9.0602 10.5602 9 10.7056 9 10.8571C9 11.0087 9.0602 11.154 9.16737 11.2612C9.27453 11.3684 9.41988 11.4286 9.57143 11.4286H10.1786L10.8571 22.3186C10.9079 23.2775 11.6429 24 12.5714 24H19.1429C20.0761 24 20.7964 23.2936 20.8571 22.3214L21.5357 11.4286H22.1429C22.2944 11.4286 22.4398 11.3684 22.5469 11.2612C22.6541 11.154 22.7143 11.0087 22.7143 10.8571C22.7143 10.7056 22.6541 10.5602 22.5469 10.4531C22.4398 10.3459 22.2944 10.2857 22.1429 10.2857ZM13.5918 21.7143H13.5714C13.4233 21.7144 13.281 21.657 13.1744 21.5542C13.0678 21.4514 13.0053 21.3112 13 21.1632L12.7143 13.1632C12.7089 13.0117 12.7639 12.8642 12.8673 12.7532C12.9706 12.6422 13.1138 12.5768 13.2654 12.5714C13.4169 12.566 13.5644 12.6211 13.6754 12.7244C13.7864 12.8277 13.8517 12.9709 13.8571 13.1225L14.1429 21.1225C14.1456 21.1976 14.1335 21.2724 14.1072 21.3428C14.081 21.4132 14.0412 21.4777 13.99 21.5326C13.9388 21.5876 13.8773 21.6319 13.809 21.6631C13.7406 21.6943 13.6668 21.7117 13.5918 21.7143ZM16.4286 21.1429C16.4286 21.2944 16.3684 21.4398 16.2612 21.5469C16.154 21.6541 16.0087 21.7143 15.8571 21.7143C15.7056 21.7143 15.5602 21.6541 15.4531 21.5469C15.3459 21.4398 15.2857 21.2944 15.2857 21.1429V13.1429C15.2857 12.9913 15.3459 12.846 15.4531 12.7388C15.5602 12.6316 15.7056 12.5714 15.8571 12.5714C16.0087 12.5714 16.154 12.6316 16.2612 12.7388C16.3684 12.846 16.4286 12.9913 16.4286 13.1429V21.1429ZM17.5714 10.2857H14.1429V9.42857C14.1424 9.39093 14.1495 9.35358 14.1637 9.31873C14.1779 9.28387 14.199 9.2522 14.2256 9.22558C14.2522 9.19896 14.2839 9.17793 14.3187 9.16373C14.3536 9.14952 14.3909 9.14243 14.4286 9.14286H17.2857C17.3234 9.14243 17.3607 9.14952 17.3956 9.16373C17.4304 9.17793 17.4621 9.19896 17.4887 9.22558C17.5153 9.2522 17.5364 9.28387 17.5506 9.31873C17.5648 9.35358 17.5719 9.39093 17.5714 9.42857V10.2857ZM18.7143 21.1632C18.709 21.3112 18.6465 21.4514 18.5399 21.5542C18.4333 21.657 18.2909 21.7144 18.1429 21.7143H18.1221C18.0471 21.7116 17.9734 21.6942 17.9051 21.663C17.8368 21.6318 17.7753 21.5875 17.7242 21.5325C17.673 21.4775 17.6332 21.413 17.607 21.3427C17.5808 21.2723 17.5687 21.1975 17.5714 21.1225L17.8571 13.1225C17.8598 13.0475 17.8772 12.9737 17.9084 12.9054C17.9396 12.8371 17.984 12.7756 18.0389 12.7244C18.0939 12.6732 18.1584 12.6334 18.2287 12.6071C18.2991 12.5809 18.3739 12.5688 18.4489 12.5714C18.524 12.5741 18.5977 12.5915 18.6661 12.6227C18.7344 12.6539 18.7959 12.6982 18.847 12.7532C18.8982 12.8081 18.938 12.8726 18.9643 12.943C18.9905 13.0133 19.0027 13.0882 19 13.1632L18.7143 21.1632Z" fill="#BC2701"/>
</svg>
