<svg width="32" height="32" viewBox="0 0 32 32" fill="none" xmlns="http://www.w3.org/2000/svg">
<rect width="32" height="32" rx="16" fill="#DFFDF0"/>
<path d="M16.0036 8.16448C15.9594 8.1129 15.9046 8.07149 15.8429 8.04309C15.7812 8.0147 15.7141 8 15.6462 8C15.5783 8 15.5112 8.0147 15.4495 8.04309C15.3878 8.07149 15.333 8.1129 15.2888 8.16448C14.0475 9.61637 10 14.6358 10 18.354C10 21.8188 12.1816 24 15.646 24C19.1105 24 21.292 21.8188 21.292 18.354C21.292 14.6358 17.2445 9.61637 16.0036 8.16448ZM16.2734 21.9612C16.198 21.9613 16.1237 21.9434 16.0567 21.9089C15.9897 21.8743 15.932 21.8242 15.8885 21.7627C15.8449 21.7012 15.8167 21.6302 15.8063 21.5556C15.7959 21.4809 15.8036 21.4049 15.8287 21.3338C15.8608 21.2411 15.9213 21.1609 16.0016 21.1046C16.082 21.0483 16.178 21.0187 16.2761 21.0202C16.8989 21.0188 17.4958 20.7708 17.9361 20.3304C18.3765 19.8901 18.6245 19.2932 18.6259 18.6704C18.6244 18.5723 18.654 18.4763 18.7103 18.3959C18.7666 18.3156 18.8468 18.2551 18.9395 18.223C19.0106 18.1979 19.0866 18.1902 19.1613 18.2006C19.2359 18.211 19.307 18.2392 19.3684 18.2828C19.4299 18.3263 19.48 18.384 19.5146 18.451C19.5491 18.518 19.567 18.5923 19.5669 18.6676C19.5659 19.5409 19.2186 20.378 18.6012 20.9955C17.9837 21.6129 17.1466 21.9602 16.2734 21.9612Z" fill="#21BF73"/>
</svg>
