<svg width="32" height="32" viewBox="0 0 32 32" fill="none" xmlns="http://www.w3.org/2000/svg">
<rect width="32" height="32" rx="16" fill="url(#paint0_linear_2183_12625)"/>
<path d="M8 22.2222C8 22.6937 8.1873 23.1459 8.5207 23.4793C8.8541 23.8127 9.30628 24 9.77778 24H22.2222C22.6937 24 23.1459 23.8127 23.4793 23.4793C23.8127 23.1459 24 22.6937 24 22.2222V9.77778C24 9.30628 23.8127 8.8541 23.4793 8.5207C23.1459 8.1873 22.6937 8 22.2222 8H9.77778C9.30628 8 8.8541 8.1873 8.5207 8.5207C8.1873 8.8541 8 9.30628 8 9.77778V22.2222ZM16 10.6667H21.3333V16H19.5556V12.4444H16V10.6667ZM10.6667 16H12.4444V19.5556H16V21.3333H10.6667V16Z" fill="white"/>
<defs>
<linearGradient id="paint0_linear_2183_12625" x1="16" y1="0" x2="16" y2="32" gradientUnits="userSpaceOnUse">
<stop stop-color="#005CB1"/>
<stop offset="1" stop-color="#337DC1"/>
</linearGradient>
</defs>
</svg>
