<svg width="32" height="32" viewBox="0 0 32 32" fill="none" xmlns="http://www.w3.org/2000/svg">
<rect width="32" height="32" rx="16" fill="url(#paint0_linear_2183_12618)"/>
<path d="M15.5849 8C17.3313 8 19.0062 8.69376 20.2411 9.92867C21.476 11.1636 22.1698 12.8385 22.1698 14.5849C22.1698 17.3674 20.2146 20.3999 16.3548 23.7146C16.1402 23.899 15.8666 24.0002 15.5836 24C15.3007 23.9998 15.0272 23.898 14.813 23.7133L14.5577 23.4917C10.8688 20.2635 9 17.3053 9 14.5849C9 12.8385 9.69376 11.1636 10.9287 9.92867C12.1636 8.69376 13.8385 8 15.5849 8ZM15.5849 12.0522C14.9132 12.0522 14.269 12.3191 13.794 12.794C13.3191 13.269 13.0522 13.9132 13.0522 14.5849C13.0522 15.2566 13.3191 15.9008 13.794 16.3758C14.269 16.8507 14.9132 17.1176 15.5849 17.1176C16.2566 17.1176 16.9008 16.8507 17.3758 16.3758C17.8507 15.9008 18.1176 15.2566 18.1176 14.5849C18.1176 13.9132 17.8507 13.269 17.3758 12.794C16.9008 12.3191 16.2566 12.0522 15.5849 12.0522Z" fill="white"/>
<defs>
<linearGradient id="paint0_linear_2183_12618" x1="16" y1="0" x2="16" y2="32" gradientUnits="userSpaceOnUse">
<stop stop-color="#005CB1"/>
<stop offset="1" stop-color="#337DC1"/>
</linearGradient>
</defs>
</svg>
